<!DOCTYPE svg PUBLIC "-//W3C//DTD SVG 1.1//EN" "http://www.w3.org/Graphics/SVG/1.1/DTD/svg11.dtd">
<!-- Uploaded to: SVG Repo, www.svgrepo.com, Transformed by: SVG Repo Mixer Tools -->
<svg fill="#000000" width="800px" height="800px" viewBox="-12.8 -12.8 153.60 153.60" data-name="Layer 1" id="Layer_1" xmlns="http://www.w3.org/2000/svg">
<g id="SVGRepo_bgCarrier" stroke-width="0" transform="translate(26.880000000000003,26.880000000000003), scale(0.58)">
<path transform="translate(-12.8, -12.8), scale(4.8)" d="M16,28.695097634897515C19.688062193898258,28.99894973969173,23.801708935761326,29.03494227153544,26.437861139484205,26.437861139484205C29.084379619221234,23.830567372590433,28.784113107563478,19.713710068744046,28.88608553413959,16C28.992449286812498,12.12636324824578,29.487769717639853,7.966444833718273,27.027258340560422,4.972741659439581C24.393976149270834,1.7688283070077633,20.113149476420762,-0.20881300505461586,16.000000000000004,0.32150506315862515C12.176008391058982,0.8145413251623924,10.20804537626915,4.7553756149713005,7.491529304509804,7.491529304509802C4.792634731152955,10.20993411033271,0.5091392745453076,12.170102435396057,0.4340310123036879,15.999999999999996C0.35854890036290543,19.848960794262254,4.167810983601742,22.415764975036726,7.151133933792222,24.848866066207776C9.742146347194824,26.962011453261866,12.667829306380867,28.42056672257589,16,28.695097634897515" fill="#608cbe" strokewidth="0"/>
</g>
<g id="SVGRepo_tracerCarrier" stroke-linecap="round" stroke-linejoin="round"/>
<g id="SVGRepo_iconCarrier">
<title/>
<path d="M56.7,29.49a42.31,42.31,0,0,1,27.5,1.68,1.07,1.07,0,0,0,.39.07A1,1,0,0,0,85,29.32,44,44,0,0,0,68,26a44.58,44.58,0,0,0-11.86,1.61,1,1,0,0,0,.54,1.93Z"/>
<path d="M44.42,35a1,1,0,0,0,.54-.17,42.42,42.42,0,0,1,7-3.69,1,1,0,0,0-.76-1.85,43.78,43.78,0,0,0-7.36,3.87,1,1,0,0,0-.29,1.38A1,1,0,0,0,44.42,35Z"/>
<path d="M113.33,47l0,0A50.9,50.9,0,1,0,34,108a1,1,0,0,0,.27.23A50.75,50.75,0,0,0,95,113.37a.87.87,0,0,0,.24-.15,0,0,0,0,0,0,0A50.8,50.8,0,0,0,113.33,47ZM68,21.28A48.94,48.94,0,0,1,110.9,46.69a83.38,83.38,0,0,1-44.7-.34,85.52,85.52,0,0,0-39.68-2A48.9,48.9,0,0,1,68,21.28ZM21.26,84.59A50.5,50.5,0,0,1,79.51,97.12L93,112.24a48.68,48.68,0,0,1-14.29,5.69l-7.06-5.64a38.17,38.17,0,0,0-36.62-6A49,49,0,0,1,21.26,84.59Zm15.49,23.2a36.17,36.17,0,0,1,33.65,6.07l5.73,4.57a49.31,49.31,0,0,1-8.11.69A48.71,48.71,0,0,1,36.75,107.79Zm58,3.37L81,95.79A52.59,52.59,0,0,0,41.8,78.22a52.06,52.06,0,0,0-21.09,4.44,49,49,0,0,1,2.07-31.08.94.94,0,0,0,.49.15,57.14,57.14,0,0,1,37.47,14A59.49,59.49,0,0,0,99.66,80.19a58.77,58.77,0,0,0,16.69-2.43A49,49,0,0,1,94.71,111.16Zm21.92-35.57A57.45,57.45,0,0,1,62.05,64.22,59.17,59.17,0,0,0,23.6,49.73q.72-1.57,1.56-3.09a83.46,83.46,0,0,1,40.48,1.63,85.23,85.23,0,0,0,23.73,3.31,81,81,0,0,0,22.47-3.08,48.51,48.51,0,0,1,5.1,21.7A48,48,0,0,1,116.63,75.59Z"/>
<path d="M83.59,69.15l-2.16-.58a1,1,0,1,0-.52,1.93l2.15.58a.82.82,0,0,0,.26,0,1,1,0,0,0,.27-2Z"/>
<path d="M111.53,70.58a1,1,0,0,0-1.2-.75,53.78,53.78,0,0,1-20.84.6,1,1,0,0,0-1.14.83,1,1,0,0,0,.82,1.15,57.77,57.77,0,0,0,9.31.76,55,55,0,0,0,12.3-1.39A1,1,0,0,0,111.53,70.58Z"/>
<path d="M125.75,24.2A5.64,5.64,0,0,1,122,20.47a1,1,0,0,0-1-.7,1,1,0,0,0-1,.7,5.62,5.62,0,0,1-3.73,3.73,1,1,0,0,0-.7,1,1,1,0,0,0,.7.95,5.64,5.64,0,0,1,3.73,3.73,1,1,0,0,0,1,.71,1,1,0,0,0,1-.71,5.66,5.66,0,0,1,3.73-3.73,1,1,0,0,0,.71-.95A1,1,0,0,0,125.75,24.2Zm-4.68,3.05A7.7,7.7,0,0,0,119,25.16a8,8,0,0,0,2.09-2.09,7.7,7.7,0,0,0,2.09,2.09A7.43,7.43,0,0,0,121.07,27.25Z"/>
<path d="M12.32,27.1a1,1,0,0,0-.7-1,5.64,5.64,0,0,1-3.73-3.73,1,1,0,0,0-1-.71,1,1,0,0,0-.95.71,5.66,5.66,0,0,1-3.73,3.73,1,1,0,0,0-.71,1,1,1,0,0,0,.71,1A5.64,5.64,0,0,1,6,31.79a1,1,0,0,0,.95.7,1,1,0,0,0,1-.7,5.62,5.62,0,0,1,3.73-3.73A1,1,0,0,0,12.32,27.1ZM6.93,29.19A7.7,7.7,0,0,0,4.84,27.1,7.43,7.43,0,0,0,6.93,25,7.7,7.7,0,0,0,9,27.1,8,8,0,0,0,6.93,29.19Z"/>
<path d="M24.33,107.54a9.36,9.36,0,0,1-6.2-6.2,1,1,0,0,0-1.91,0,9.36,9.36,0,0,1-6.2,6.2,1,1,0,0,0,0,1.91,9.4,9.4,0,0,1,6.2,6.2,1,1,0,0,0,1.91,0,9.4,9.4,0,0,1,6.2-6.2,1,1,0,0,0,0-1.91Zm-7.16,5.3a11.31,11.31,0,0,0-4.34-4.34,11.45,11.45,0,0,0,4.34-4.34,11.55,11.55,0,0,0,4.35,4.34A11.41,11.41,0,0,0,17.17,112.84Z"/>
<path d="M25,7.59A1,1,0,0,0,24,6.88a1,1,0,0,0-1,.71A9.18,9.18,0,0,1,17,13.67a1,1,0,0,0,0,1.92,9.18,9.18,0,0,1,6.08,6.08,1,1,0,0,0,1,.71,1,1,0,0,0,.95-.71,9.2,9.2,0,0,1,6.09-6.08,1,1,0,0,0,0-1.92A9.2,9.2,0,0,1,25,7.59ZM24,18.86a11.18,11.18,0,0,0-4.24-4.23A11.18,11.18,0,0,0,24,10.4a11.16,11.16,0,0,0,4.23,4.23A11.16,11.16,0,0,0,24,18.86Z"/>
</g>
</svg>