<!DOCTYPE svg PUBLIC "-//W3C//DTD SVG 1.1//EN" "http://www.w3.org/Graphics/SVG/1.1/DTD/svg11.dtd">
<!-- Uploaded to: SVG Repo, www.svgrepo.com, Transformed by: SVG Repo Mixer Tools -->
<svg fill="#000000" width="800px" height="800px" viewBox="-12.8 -12.8 153.60 153.60" id="Layer_1" version="1.1" xml:space="preserve" xmlns="http://www.w3.org/2000/svg" xmlns:xlink="http://www.w3.org/1999/xlink" stroke="#000000">
<g id="SVGRepo_bgCarrier" stroke-width="0" transform="translate(24.96,24.96), scale(0.61)">
<path transform="translate(-12.8, -12.8), scale(4.8)" d="M16,31.49422019554509C19.42582509085421,31.368916419021215,20.667724718876755,26.89588892060958,23.280942101464312,24.677088906890532C25.8673466961816,22.48105478111131,30.533947813926737,22.00798597740845,31.110485334071946,18.664386255996448C31.687218925805855,15.319649427481352,28.18230053104586,12.736953219960354,25.747525827329337,10.37226333965858C23.952281183569518,8.628694690253445,21.418850614393055,8.33891241588304,19.22993762727056,7.125819302827308C16.336523129827057,5.522292245921096,14.065718076756163,1.0142419379897067,10.971088135123605,2.1831782068246657C7.864341941645538,3.356691154128999,9.399924460845252,8.368135620522638,7.985877602358476,11.373044276403052C6.78233770920315,13.930616835568461,3.3703217330072346,15.39110718411942,3.4258308048056936,18.217165289105996C3.4832938418168444,21.142702975488596,6.24592106767828,23.10203344405877,8.257986822174527,25.226572018585216C10.612130287258246,27.7123101662393,12.578709878164187,31.61935809998579,16,31.49422019554509" fill="#be8260" strokewidth="0"/>
</g>
<g id="SVGRepo_tracerCarrier" stroke-linecap="round" stroke-linejoin="round"/>
<g id="SVGRepo_iconCarrier">
<path d="M90.6,26.3c-0.1-0.1-0.1-0.1-0.2-0.2c-8.7-7-19.8-11.2-31.8-11.2c-28.1,0-51,22.9-51,51s22.9,51,51,51s51-22.9,51-51 C109.6,49.9,102.2,35.6,90.6,26.3z M91.5,102.1H66.8c-0.6,0-1,0.4-1,1s0.4,1,1,1h22.4c-2.5,2-5.3,3.8-8.2,5.3 c-0.1,0-0.2-0.1-0.4-0.1h-8.7c-0.6,0-1,0.4-1,1s0.4,1,1,1h4.9c-5.6,2.3-11.8,3.5-18.2,3.5c-26.7,0-48.5-21.4-49-48h12 c0.6,0,1-0.4,1-1s-0.4-1-1-1h-12c0-1.9,0.2-3.8,0.4-5.6h33.9c0.6,0,1-0.4,1-1s-0.4-1-1-1H10.3c4.1-22.9,24.2-40.4,48.2-40.4 c10.5,0,20.3,3.4,28.3,9H55.6c-0.6,0-1,0.4-1,1s0.4,1,1,1h33.8c11,9,18.1,22.7,18.1,38C107.6,80.2,101.4,93.2,91.5,102.1z"/>
<path d="M82.2,55c-3.7,0-6.7-3-6.7-6.7s3-6.7,6.7-6.7s6.7,3,6.7,6.7c0,1.3-0.4,2.5-1,3.6c-0.3,0.5-0.2,1.1,0.3,1.4 c0.5,0.3,1.1,0.2,1.4-0.3c0.9-1.4,1.3-3,1.3-4.6c0-4.8-3.9-8.7-8.7-8.7s-8.7,3.9-8.7,8.7s3.9,8.7,8.7,8.7c0.6,0,1-0.4,1-1 S82.7,55,82.2,55z"/>
<path d="M6.7,105.8c0,1,0.3,1.9,1,2.6s1.5,1.1,2.5,1.1c0,0,0.1,0,0.1,0c0.9,0,1.8-0.3,2.5-1c0.7-0.7,1.1-1.5,1.1-2.5 c0-1-0.3-1.9-1-2.6c-0.7-0.7-1.5-1.1-2.5-1.1C8.4,102.3,6.7,103.8,6.7,105.8z M11.9,106c0,0.9-0.8,1.6-1.7,1.5 c-0.4,0-0.8-0.2-1.1-0.5c-0.3-0.3-0.4-0.7-0.4-1.1c0-0.9,0.7-1.5,1.6-1.5c0,0,0,0,0.1,0C11.2,104.4,11.9,105.1,11.9,106z"/>
<path d="M88.8,13.7c1.9,0,3.5-1.5,3.6-3.5c0.1-2-1.5-3.7-3.5-3.7c-1,0-1.9,0.3-2.6,1S85.2,9,85.2,10c0,1,0.3,1.9,1,2.6 c0.7,0.7,1.5,1.1,2.5,1.1C88.7,13.7,88.8,13.7,88.8,13.7z M87.2,10.1c0-0.9,0.8-1.6,1.7-1.5c0.9,0,1.6,0.8,1.5,1.7 c0,0.9-0.8,1.6-1.7,1.5C87.9,11.7,87.2,11,87.2,10.1z"/>
<path d="M35,36.6c-3.1,0-5.6,2.5-5.6,5.6s2.5,5.6,5.6,5.6s5.6-2.5,5.6-5.6S38.2,36.6,35,36.6z M35,45.8c-2,0-3.6-1.6-3.6-3.6 s1.6-3.6,3.6-3.6s3.6,1.6,3.6,3.6S37.1,45.8,35,45.8z"/>
<path d="M55.1,73c-0.5,0.2-0.8,0.8-0.5,1.3c0.6,1.5,0.9,3,0.9,4.6c0,6.6-5.4,12-12,12s-12-5.4-12-12s5.4-12,12-12 c2.2,0,4.4,0.6,6.3,1.8c0.5,0.3,1.1,0.1,1.4-0.3c0.3-0.5,0.1-1.1-0.3-1.4c-2.2-1.4-4.8-2.1-7.4-2.1c-7.7,0-14,6.3-14,14 c0,7.7,6.3,14,14,14s14-6.3,14-14c0-1.9-0.4-3.7-1.1-5.4C56.2,73,55.6,72.8,55.1,73z"/>
<path d="M91.8,79.1c-3.1,0-5.6,2.5-5.6,5.6s2.5,5.6,5.6,5.6s5.6-2.5,5.6-5.6S94.9,79.1,91.8,79.1z M91.8,88.3c-2,0-3.6-1.6-3.6-3.6 c0-2,1.6-3.6,3.6-3.6c2,0,3.6,1.6,3.6,3.6C95.4,86.7,93.8,88.3,91.8,88.3z"/>
<path d="M86.8,121.5c0.2,0,0.3,0,0.5-0.1c1.5-0.8,3-1.6,4.5-2.6c0.5-0.3,0.6-0.9,0.3-1.4c-0.3-0.5-0.9-0.6-1.4-0.3 c-1.4,0.9-2.9,1.7-4.3,2.5c-0.5,0.3-0.7,0.9-0.4,1.3C86.1,121.3,86.4,121.5,86.8,121.5z"/>
<path d="M106.7,105.7c0.4-0.4,0.3-1.1-0.1-1.4c-0.4-0.4-1.1-0.3-1.4,0.1c-2.8,3.4-6,6.5-9.5,9.2c-0.4,0.3-0.5,1-0.2,1.4 c0.2,0.3,0.5,0.4,0.8,0.4c0.2,0,0.4-0.1,0.6-0.2C100.5,112.4,103.8,109.2,106.7,105.7z"/>
<path d="M110.4,99c0.2,0.1,0.3,0.2,0.5,0.2c0.3,0,0.7-0.2,0.8-0.5c5.8-9.4,9.1-20.2,9.5-31.2c0.2-4.6-0.2-9.2-1-13.7 c-0.1-0.5-0.6-0.9-1.2-0.8c-0.5,0.1-0.9,0.6-0.8,1.2c0.8,4.3,1.1,8.8,1,13.2c-0.4,10.7-3.6,21.2-9.2,30.2 C109.8,98.1,109.9,98.7,110.4,99z"/>
<path d="M117.4,47.5c0.1,0,0.2,0,0.3,0c0.5-0.2,0.8-0.7,0.7-1.3c-2.4-7.7-6.3-14.7-11.4-21c1-1.1,1.7-2.5,1.7-4.1 c0.1-3.4-2.6-6.3-6-6.4c-1.7-0.1-3.2,0.5-4.4,1.7s-1.9,2.7-2,4.3c-0.1,1.7,0.5,3.2,1.7,4.4s2.7,1.9,4.3,2c0.1,0,0.1,0,0.2,0 c1,0,2-0.3,2.9-0.7c5,6.1,8.7,12.9,11.1,20.4C116.6,47.2,117,47.5,117.4,47.5z M102.4,25.2c-2.3-0.1-4.1-2-4-4.3 c0.1-2.3,2-4.1,4.3-4c2.3,0.1,4.1,2,4,4.3S104.7,25.3,102.4,25.2z"/>
<title/>
</g>
</svg>