<svg version="1.2" xmlns="http://www.w3.org/2000/svg" viewBox="0 0 333 333" width="333" height="333">
	<title>image</title>
	<defs>
		<clipPath clipPathUnits="userSpaceOnUse" id="cp1">
			<path d="m0 0h333v333h-333z"/>
		</clipPath>
	</defs>
	<style>
		.s0 { fill: #ffffff } 
		.s1 { fill: #d0d0d0 } 
		.s2 { fill: #023662 } 
		.s3 { fill: #ddd7d3 } 
		.s4 { fill: #d8d3cc } 
		.s5 { fill: #dad8d7 } 
	</style>
	<g id="Clip-Path" clip-path="url(#cp1)">
		<g id="Layer">
			<path id="Layer" class="s0" d="m326.2 246.8c0-12.6-0.1-38.4-0.1-47.6q0 0 0-0.4c-56.9-32.7-142.7-82.3-181.6-104.8-33 19-99.3 57.4-137.7 79.4 0 10.7 0 42.5 0 51.9 35.1 20.3 126.8 73.3 183.1 105.7 40-23 105.5-60.8 136.3-78.7v-0.4c0-1.3 0-3 0-5.1z"/>
			<path id="Layer" class="s1" d="m143.7 94.4c-33.1 19.1-98.4 56.9-136.5 78.8 28.9 16.7 133.4 77.2 181.9 105 35.4-20.3 112.9-65.1 137-79q0 0 0-0.4c-56.9-32.7-142.7-82.3-181.6-104.8z"/>
			<path id="Layer" class="s2" d="m328.3 246.8q0-12.8-0.1-25.5c0-7.5-0.2-15 0-22.5q0-0.6-0.3-1-0.3-0.5-0.7-0.8-37.8-21.7-75.4-43.5-37.4-21.5-74.7-43.1-15.8-9.1-31.6-18.3-0.4-0.2-1-0.2-0.6 0-1.1 0.2-25.1 14.6-50.2 29.1-29.4 17-58.8 33.9-14.4 8.3-28.7 16.5-0.5 0.3-0.8 0.8-0.2 0.5-0.2 1 0 18.3 0 36.6 0 4.6 0 9.1-0.2 3.2 0.1 6.5c0.2 1.4 1.8 2 2.9 2.6l2.9 1.7 6.4 3.7q16 9.3 32 18.5 19.8 11.4 39.5 22.8 20.9 12.1 41.9 24.2 20.2 11.7 40.3 23.3c6 3.4 11.9 7.2 18 10.3 1.8 0.9 3.5-0.6 5-1.5l4.5-2.5q4.6-2.7 9.3-5.4 20.8-12 41.6-24 20.9-12 41.7-24.1 17.1-9.8 34.2-19.7c1.2-0.7 3-1.4 3.3-2.9q0.2-2.9 0-5.8c0-2.7-4.2-2.7-4.2 0q0 2.8 0 5.5l1-1.8q-24.1 14-48.3 27.9-29.2 16.9-58.5 33.8-14.7 8.5-29.4 17h2.1q-38.5-22.2-77-44.4-37.9-21.9-75.9-43.9-15.1-8.7-30.2-17.4l1 1.8c0.1-14.1 0-28.1 0-42.2q0-4.8 0-9.7l-1.1 1.9q27.1-15.6 54.1-31.2 28.9-16.7 57.8-33.3 12.9-7.5 25.9-15h-2.2q31.3 18.1 62.6 36.1 39.1 22.7 78.3 45.3 20.4 11.7 40.7 23.4l-1-1.8c-0.2 7.5 0 15 0 22.5q0 12.7 0.1 25.5c0 2.7 4.2 2.8 4.2 0z"/>
			<path id="Layer" class="s2" d="m187.4 278q0 21.9 0.1 43.8 0 4.5 0 8.9c0 2.7 4.2 2.7 4.2 0 0-14.3 0-28.5 0-42.8q-0.1-4.9-0.1-9.9c0-2.7-4.2-2.7-4.2 0z"/>
			<path id="Layer" class="s2" d="m8.2 176.2q12.8 7.4 25.6 14.8 18 10.5 36 20.9 20.5 11.8 40.9 23.6 20.1 11.6 40.2 23.2 17 9.8 34.1 19.5 1.7 1 3.5 2c2.3 1.4 4.5-2.2 2.1-3.6q-16.5-9.4-32.9-18.9-19.9-11.5-39.8-22.9-20.5-11.9-41.1-23.8-18.4-10.6-36.9-21.3-13.6-7.9-27.1-15.7l-2.4-1.4c-2.4-1.4-4.5 2.3-2.2 3.6z"/>
			<path id="Layer" class="s2" d="m189.6 294q-14.2-8.1-28.4-16.3-17.3-10-34.6-19.9-17.8-10.3-35.7-20.6-16.1-9.3-32.2-18.6-11.8-6.9-23.5-13.7-1.1-0.6-2.1-1.2c-2.4-1.4-4.5 2.3-2.2 3.7q11.1 6.4 22.2 12.8 15.7 9.1 31.4 18.2 17.8 10.2 35.5 20.4 17.5 10.1 35 20.2 14.7 8.5 29.4 16.9l3 1.8c2.4 1.3 4.5-2.3 2.2-3.7z"/>
			<path id="Layer" class="s2" d="m178 304.5q-13.8-7.9-27.5-15.9c-2.4-1.4-4.5 2.3-2.1 3.7q13.7 7.9 27.4 15.8c2.4 1.4 4.5-2.3 2.2-3.6z"/>
			<path id="Layer" class="s3" d="m268.1 291.9c-4.9 2.8-20.7 11.9-27.9 16-7-3.9-19.3-11-28.5-16.3 8.7-5 18.3-10.6 27.9-16.1 9.5 5.4 21.9 12.6 28.5 16.4z"/>
			<path id="Layer" class="s2" d="m211.7 293.7l-1-0.3q13.2 7.6 26.5 15.3 1.2 0.9 2.7 1.3c1.1 0.2 2-0.6 2.9-1.1l5-2.9 11.4-6.6q5-2.8 9.9-5.7 0.5-0.3 0.8-0.8 0.3-0.5 0.3-1 0-0.6-0.3-1.1-0.3-0.5-0.8-0.8-14.2-8.1-28.4-16.3c-2.4-1.4-4.5 2.2-2.1 3.6q14.2 8.2 28.4 16.4v-3.7q-14 8.1-27.9 16.1h2.2q-7-4-14-8l-7.8-4.5-3.9-2.2c-1.1-0.7-2.6-2-3.9-2-2.7 0-2.7 4.3 0 4.3z"/>
			<path id="Layer" class="s2" d="m307.6 233.8q-19.5 11.3-39 22.5-26.3 15.2-52.5 30.3-13.6 7.8-27.2 15.6c-2.4 1.4-0.2 5 2.1 3.7q25.1-14.4 50.1-28.9 24.9-14.3 49.6-28.6 9.5-5.5 19-11c2.4-1.3 0.2-5-2.1-3.6z"/>
			<path id="Layer" class="s2" d="m190.4 279.9q27.5-15.8 55-31.7 29.7-17.1 59.3-34.2 11.2-6.5 22.5-13c2.3-1.4 0.2-5-2.2-3.6q-23.4 13.5-46.8 27-30.8 17.8-61.6 35.5-14.2 8.2-28.3 16.3c-2.4 1.4-0.3 5 2.1 3.7z"/>
			<path id="Layer" class="s0" d="m281.6 169.4c0-9.4 0-28.7 0-35.6q0 0 0-0.3c-42.5-24.4-106.5-61.4-135.6-78.2-24.6 14.2-74.2 42.8-102.8 59.3 0 8 0 31.7 0 38.7 26.2 15.1 94.6 54.7 136.7 78.9 29.9-17.2 78.7-45.4 101.7-58.7v-0.4c0-0.9 0-2.2 0-3.7z"/>
			<path id="Layer" class="s0" d="m144.1 56.3c-25.1 14.6-73 42.2-100.9 58.3 0 8 0 31.7 0 38.7 11.4 6.6 30.8 17.8 52.5 30.3 0-9.6-0.1-30.9-0.1-39 44.2-25.6 81.5-47.1 102.4-59.2-20.8-12.1-39.6-22.9-52-30.1z"/>
			<path id="Layer" class="s2" d="m283.7 169.4c0-12-0.3-23.9 0-35.9q0-0.5-0.3-1-0.3-0.5-0.8-0.8-28.1-16.2-56.2-32.4-27.9-16.1-55.8-32.2-11.8-6.9-23.5-13.7-0.5-0.2-1.1-0.2-0.6 0-1.1 0.2-18.7 10.9-37.5 21.7-21.9 12.7-43.8 25.3-10.8 6.2-21.5 12.4-0.5 0.3-0.8 0.7-0.2 0.5-0.2 1.1 0 13.8 0 27.6 0 3.4 0 6.7c0 1.5-0.3 3.5 0.1 5 0.4 1.5 3.4 2.6 4.7 3.4l4.8 2.8q26.8 15.5 53.5 30.9 30.6 17.7 61.3 35.4l7 4 3.2 1.8q1.6 1.1 3.4 1.9c1.4 0.6 2.7-0.5 3.9-1.2l3.5-2 7.1-4.1q15.5-8.9 30.9-17.9 28.3-16.3 56.6-32.7c1.2-0.7 2.5-1.2 2.6-2.7 0.1-1.4 0-2.8 0-4.1 0-2.7-4.2-2.7-4.2 0q0 2 0 4.1l1.1-1.8q-18 10.4-36 20.8-21.9 12.6-43.8 25.2-11 6.4-22 12.7h2.2q-28.7-16.5-57.4-33.1-28.3-16.3-56.6-32.7-11.4-6.6-22.7-13.1l1 1.8c0-10.5 0-20.9 0-31.4q0-3.7 0-7.3l-1.1 1.8q20.3-11.6 40.5-23.3 21.5-12.4 43-24.8 9.7-5.6 19.4-11.2h-2.2q23.4 13.5 46.7 27 29.2 16.9 58.5 33.7 15.2 8.8 30.4 17.6l-1-1.9c-0.3 12 0 24 0 35.9 0 2.7 4.2 2.7 4.2 0z"/>
			<path id="Layer" class="s2" d="m177.5 192.7c0 8.9 0.1 17.9 0.1 26.8 0 2.7 4.2 2.7 4.2 0 0-8.9-0.1-17.9-0.1-26.8 0-2.7-4.2-2.7-4.2 0z"/>
			<path id="Layer" class="s2" d="m181.1 191.4q-24.1-13.8-48.1-27.7-25.9-14.9-51.7-29.9-9.8-5.7-19.6-11.3c-2.4-1.4-4.5 2.3-2.2 3.6q20.5 11.9 40.9 23.7 26.9 15.5 53.8 31 12.4 7.1 24.8 14.2c2.3 1.4 4.5-2.3 2.1-3.6z"/>
			<path id="Layer" class="s2" d="m180.5 194.5q17.4-9.9 34.8-20 18.6-10.7 37.3-21.5 7.1-4.1 14.2-8.2c2.4-1.4 0.3-5.1-2.1-3.7q-14.8 8.6-29.6 17.1-19.3 11.2-38.7 22.3-9 5.2-18 10.4c-2.3 1.3-0.2 5 2.1 3.6z"/>
			<path id="Layer" class="s2" d="m96.8 146.3q23.2-13.4 46.4-26.8 18.8-10.9 37.7-21.7 8-4.7 16.1-9.4c2.3-1.3 0.2-5-2.2-3.6q-15.5 9-31.1 18-21 12.1-41.9 24.2l-27.1 15.7c-2.4 1.3-0.2 5 2.1 3.6z"/>
			<path id="Layer" class="s2" d="m93.5 144.6c0 11.9 0.1 23.9 0.1 35.9 0 2.7 4.2 2.7 4.2 0 0-12 0-24-0.1-35.9 0-2.8-4.2-2.8-4.2 0z"/>
			<path id="Layer" class="s2" d="m224.6 108.8q5.2-7.2 9.3-15.1 2-4.4 3.5-9 0 0 0 0 0-0.1 0-0.1c-0.6-0.3-1.2-0.4-1.8-0.4q0 0 0 0 0 0 0 0.1-0.8 3.9-2.4 7.5c-1.1 2.8-6.2 13.9-8.6 17z"/>
			<path id="Layer" class="s2" d="m226.4 109.8c5.1-6.5 9.1-13.8 12-21.6 0.4-1.2 1.3-2.9 1-4.1-0.4-1.5-2.2-2-3.6-2-1.6 0-2.1 1-2.4 2.4q-0.4 1.7-1 3.3-0.5 1.6-1.1 3.2l-0.2 0.4c-0.1 0.4 0.2-0.5 0 0q-0.2 0.4-0.4 0.9-1 2.4-2.1 4.7c-1.8 3.6-3.4 7.5-5.9 10.7-0.2 0.5-0.3 1.1-0.2 1.6 0.2 0.5 0.5 1 1 1.3 0.5 0.3 1.1 0.3 1.6 0.2 0.5-0.2 1-0.5 1.3-1 2.7-3.5 4.6-7.9 6.4-12 2-4.1 4.1-8.4 4.8-13l-0.5 1v-0.1l-1.5 0.6q0.4 0 0.7 0.2l-1-1.3h0.1v-1.1c-2.9 8.5-7.1 16.5-12.7 23.6-0.2 0.5-0.3 1.1-0.2 1.6 0.2 0.5 0.5 1 1 1.3 0.5 0.3 1.1 0.3 1.6 0.2 0.5-0.2 1-0.5 1.3-1z"/>
			<path id="Layer" class="s4" d="m222.7 109.4c-5.2 1.5-10.5 1.2-15.9 0.7-3-0.4-12.1-1.5-13.7-1.6q-1.1-0.3-2.3-0.2c-0.6 0.2-0.7 0.7-0.8 1.3-0.6 2.4-0.8 5-0.6 7.6 0.2 3.3 0.8 6.5 1.9 9.6 2 4.7 5.5 8.7 9.8 11.5q0.4 0.3 0.9 0.3 0.5-0.1 0.9-0.4 2.1-1.2 3.9-2.6l2.3-1.5q1-0.9 2.2-1.6c-0.1 0.4 0 0.8-0.1 1.2l-0.1 1.3-0.3 2.7-0.2 2.6q-0.1 0.6-0.2 1.3-0.1 0.6 0 1.2c0.3 0.8 1.8 1.4 2.5 1.7 2.1 1.1 4.3 1.7 6.6 1.9 3.5 0.4 7 0.1 10.3-0.8 2.7-0.8 5.3-1.9 7.6-3.4q1.8-1.1 3.2-2.6c1-0.9 1.8-1.6 0.8-2.9-6.5-7.6-13.6-16.3-16.6-25.9 0 0-0.4-1.5-0.5-1.9-0.3 0.1-1.6 0.5-1.6 0.5z"/>
			<path id="Layer" class="s2" d="m222.2 107.4c-5.8 1.6-11.8 1-17.6 0.3-3.8-0.5-7.5-0.9-11.3-1.3q-1.5-0.4-3-0.1c-1.6 0.5-2.2 1.9-2.5 3.4-0.7 3.3-0.8 6.6-0.3 9.9 0.6 6.4 3.4 12.4 8 16.9q1.6 1.6 3.6 3c1.6 1.1 3.1 1.5 4.9 0.5 3-1.5 5.4-4.1 8.4-5.6l-3.2-1.9c-0.4 3-0.6 5.9-0.9 8.8q-0.1 0.9 0.1 1.8 0.2 0.9 0.8 1.6 1.4 1.2 3.1 1.9c5.5 2.6 12.3 2.6 18.1 1 2.9-0.8 5.7-2 8.3-3.7 1.9-1.2 5.3-3.5 5.2-6.2 0-1.4-1-2.4-1.9-3.5q-1.4-1.7-2.8-3.4c-1.8-2.2-3.6-4.5-5.2-6.8-3.2-4.7-6.6-10-7.6-15.6-0.2-0.6-0.5-1-1-1.3-0.5-0.3-1.1-0.3-1.6-0.2q-0.8 0.2-1.6 0.4c-2.6 0.8-1.5 4.8 1.1 4.1q0.8-0.2 1.6-0.4l-2.6-1.5c1 4.2 2.7 8.2 5 11.8q3.9 6.6 8.9 12.5 1.1 1.4 2.2 2.7 0.5 0.8 1.2 1.4l0.2 0.2v-0.6c-0.1 0-0.7 0.7-0.7 0.6-1.8 1.8-3.9 3.2-6.2 4.2-4.9 2.1-10.3 2.7-15.6 1.6q-1.9-0.5-3.7-1.4-0.6-0.4-1.3-0.7c-0.3 0.1 0.4 0.2 0.2 0.4q0.1-0.6 0.1-1.1c0.3-2.8 0.5-5.7 0.8-8.6 0.2-1.7-1.9-2.5-3.2-1.8q-3.4 2.1-6.5 4.5c-0.6 0.4-1.1 0.7-1.6 1.1-0.5 0.3 0.3 0.2-0.1 0q-0.4-0.2-0.8-0.5-1.5-1-2.8-2.3c-3.9-3.8-6.3-8.9-6.7-14.4-0.4-2.8-0.4-5.7 0.2-8.5q0.1-0.4 0.2-0.8l-0.3 0.3q-0.7 0.4 0 0.3 0.6 0.2 1.3 0.2 0.7 0 1.5 0.1c3.5 0.4 7.1 0.9 10.6 1.3 6.1 0.7 12.2 1.1 18.1-0.6 2.6-0.7 1.5-4.8-1.1-4z"/>
			<path id="Layer" class="s2" d="m121.5 133.1q0.7 0.3 1.3 0.5l-0.5-0.2q2.1 0.9 3.9 2.3l-0.5-0.4q0.6 0.5 1.2 1c0.4 0.4 0.9 0.6 1.5 0.6 0.5 0 1.1-0.2 1.5-0.6 0.4-0.4 0.6-0.9 0.6-1.5 0-0.5-0.2-1.1-0.6-1.5-2.1-1.9-4.6-3.3-7.2-4.2-0.6-0.2-1.2-0.1-1.6 0.2-0.5 0.3-0.9 0.7-1 1.3-0.2 0.5-0.1 1.1 0.2 1.5 0.3 0.5 0.7 0.9 1.2 1.1z"/>
			<path id="Layer" class="s5" d="m138.8 155.7c-3.1-1.7-5.9-4-8.1-6.7-3-4.2-4.3-9.4-3.7-14.5 5-2.7 14.6-2.7 23.3 3.8 4 2.8 6.8 6.9 8.2 11.5 0.6 2.1 0.8 4.2 0.6 6.4-0.2 2.1-0.9 4.2-1.9 6.1q-0.1 0.2-0.3 0.4-0.2 0.1-0.5 0.2-0.2 0.1-0.4 0-0.3 0-0.5-0.1c-5.1-3.6-12-5.3-16.7-7.1z"/>
			<path id="Layer" class="s2" d="m139.8 153.9c-3.2-2-6.5-4.3-8.4-7.7-2-3.6-2.8-7.6-2.3-11.7l-1.1 1.8c6.6-3.4 15.3-0.5 20.9 3.5 3.3 2.3 5.8 5.6 7.2 9.4 0.7 2 1.1 4.1 1 6.3q-0.2 1.5-0.7 3c-0.2 0.8-0.6 2.3-1.2 2.8l0.9-0.5q0.8 0.3 0.3 0-0.2-0.2-0.5-0.3-0.6-0.4-1.1-0.7-1.1-0.6-2.1-1.1-2.4-1.1-4.8-2c-2.8-1.1-5.7-1.9-8.6-3-2.5-0.9-3.6 3.1-1.1 4.1 3.3 1.2 6.6 2.2 9.8 3.5q2.6 1 5 2.4c1.7 1 3.6 2.2 5.3 0.5 1.3-1.2 1.9-3.5 2.4-5.2 0.5-1.7 0.7-3.6 0.6-5.4-0.3-3.8-1.5-7.5-3.6-10.6-2.2-3.2-5-5.8-8.2-7.9-3.2-2-6.8-3.4-10.6-4-3.1-0.6-6.3-0.5-9.3 0.2q-2 0.4-3.7 1.4c-1.6 1-1.2 3.8-1.1 5.4 0.2 4.2 1.5 8.2 3.8 11.6 2.3 3.4 5.7 5.8 9.1 7.9 2.3 1.4 4.4-2.3 2.1-3.7z"/>
		</g>
	</g>
</svg>