<svg version="1.2" xmlns="http://www.w3.org/2000/svg" viewBox="0 0 229 229" width="229" height="229">
	<title>image</title>
	<defs>
		<clipPath clipPathUnits="userSpaceOnUse" id="cp1">
			<path d="m0 0h229v229h-229z"/>
		</clipPath>
	</defs>
	<style>
		.s0 { fill: #ffffff } 
		.s1 { fill: #023662 } 
		.s2 { fill: #cfcfcf } 
		.s3 { fill: #afafaf } 
	</style>
	<g id="Clip-Path" clip-path="url(#cp1)">
		<g id="Layer">
			<path id="Layer" class="s0" d="m192 117.7c19.3 7.1 47.1 23 30.2 43.5-15.2 18.4-47.8 24.4-70.2 26.6-6.7 0.6-28.9 1.9-37.5 2-8.6-0.1-30.8-1.4-37.5-2-22.3-2.2-55-8.2-70.2-26.6-19.9-24.2 22.4-41.9 39.4-46.5z"/>
			<path id="Layer" class="s1" d="m208.2 127c9.6 5.6 22.2 15.9 15.9 28.4-2.7 5.4-7.4 9.7-12.3 13.1-4.9 3.3-10.2 6.1-15.8 8.2-11.4 4.4-23.5 6.9-35.6 8.5-9.9 1.3-20 1.9-30.1 2.4-5 0.3-10 0.5-15.1 0.6-4.7 0.1-9.5-0.3-14.2-0.5-10.1-0.5-20.1-1-30.1-2.2-12.1-1.4-24.2-3.8-35.6-7.9-10.6-3.9-21.9-9.6-28.5-19.1-2.6-3.6-4.3-8.1-3.4-12.5 0.9-4.3 3.5-7.9 6.5-10.9 7.2-7.1 16.9-11.8 26.2-15.4q3.1-1.2 6.2-2.2c2-0.6 1.1-3.7-0.8-3-9.9 3.1-19.8 7.4-28.2 13.6-7.6 5.6-15 13.8-12.9 24 1.1 5.4 4.7 10.1 8.6 13.8 4.5 4.2 9.5 7.7 15 10.3 11.5 5.8 24.1 9 36.7 11.1q15.6 2.4 31.3 3.1c10.3 0.6 20.6 1.2 30.9 0.7 10.4-0.4 20.9-0.8 31.3-1.9 12.4-1.3 24.7-3.4 36.6-7.3 11.6-3.7 23.4-9.2 31.7-18.6 4.4-5 7.5-11.2 6.2-18-1.1-6.2-5.6-11.3-10.4-15.2q-4-3.3-8.5-5.9c-1.8-1-3.4 1.7-1.6 2.8z"/>
			<path id="Layer" class="s2" d="m117 171.3c-9.4-1.5-22.1-5.4-31.4-4.5-9.7 0.8-17.1 7.7-27.2 7.9-10.2 0.1-22.5-5.5-25.1-15.8-2.8-11.5 11.4-16.2 20.1-15.3 10.7 1.1 17.8 5.9 26.3 12 1.8 1.3 4.6 1.3 6.7 1.5 9.8 0.6 19.9 1 29.6 1.1 10.5 0 21.9 0 32.3 0.1 8 0 23.2-2.1 20.5 10.5-2.2 10.6-13.5 9.7-22.5 8.3-10.3-1.7-29.1-5.8-29.3-5.8z"/>
			<path id="Layer" class="s1" d="m117.4 169.7c-5.8-0.9-11.4-2.3-17.2-3.4-5.6-1-11.5-1.8-17.2-0.8-5.6 1-10.5 3.9-15.8 5.8-2.6 1-5.4 1.6-8.2 1.8q-3.6 0.1-7.1-0.7c-4.6-1-9.1-3-12.5-6.3-1.6-1.6-2.9-3.4-3.8-5.4q-0.7-1.6-1-3.4-0.1-0.6-0.1-1.3 0-0.6 0.1-1.3c0.3-1.7 1.1-3.2 2.3-4.4 1.3-1.3 2.9-2.4 4.6-3.1 3.5-1.6 7.3-2.3 11.1-2 5.5 0.3 10.8 2.2 15.6 4.8 2.5 1.4 4.9 3 7.3 4.6 1.2 0.8 2.4 1.7 3.6 2.5 1.3 0.7 2.7 1.2 4.2 1.3 3.2 0.5 6.5 0.5 9.7 0.6q5.3 0.3 10.5 0.5c7 0.3 13.9 0.3 20.9 0.3q10.4 0 20.7 0.1c4 0 7.9-0.2 11.9-0.1q2.6 0 5.1 0.6 0.6 0.1 1.1 0.3 0.3 0.1 0.6 0.2 0.1 0 0.3 0.1c0.2 0.1-0.1-0.1 0 0q0.5 0.2 1 0.5 0.2 0.1 0.4 0.3c0.4 0.2 0-0.1 0.3 0.2q0.4 0.4 0.7 0.7c0.3 0.3 0-0.1 0.2 0.2q0.1 0.3 0.3 0.5c0 0.1 0.2 0.6 0.1 0.3q0.1 0.2 0.2 0.5 0.1 0.3 0.1 0.6 0.1 0.1 0.1 0.3c0 0.3 0-0.1 0 0.1 0.2 2-0.2 4.1-1.1 5.9-1.8 3.5-5.4 4.9-9.1 5.1-4.4 0.4-8.6-0.3-12.8-1.1-8.5-1.4-16.9-3.2-25.3-5q-0.9-0.2-1.8-0.4c-0.4-0.1-0.8 0-1.2 0.2-0.4 0.2-0.6 0.5-0.7 0.9-0.2 0.4-0.1 0.9 0.1 1.2 0.2 0.4 0.6 0.7 1 0.8 2.3 0.4 4.7 1 7 1.5q7.2 1.5 14.4 2.9 6.9 1.4 13.9 2.2c4.3 0.3 9.2 0.2 13-2.1 3.9-2.4 6.1-7.3 5.8-11.8-0.1-1.9-0.8-3.8-2-5.2-1.3-1.2-2.8-2.1-4.5-2.6-3.5-1.2-7.5-1.2-11.2-1.1-5.4 0.1-10.8 0.1-16.2 0-14.4 0-28.9 0-43.3-0.7-3.3-0.2-6.6-0.2-9.9-0.6-1.4-0.2-2.7-0.8-3.8-1.6q-1.9-1.3-3.8-2.6c-4.9-3.3-10-6.2-15.7-7.8-4.7-1.4-9.8-1.7-14.6-0.8-4.1 0.8-8.4 2.6-11.3 5.8-3.1 3.4-3.7 8.1-2.2 12.5 1.7 4.9 5.5 8.7 9.9 11.2 4.5 2.6 9.6 4.1 14.8 4.2 6.1 0.3 11.6-1.9 17-4.2q3.9-1.8 8-3c2.8-0.6 5.5-0.9 8.3-0.7 6.1 0.3 12.1 1.7 18.1 2.9 2.7 0.6 5.5 1.2 8.3 1.6 0.4 0.1 0.8 0 1.2-0.2 0.3-0.2 0.6-0.5 0.7-0.9 0.1-0.4 0.1-0.9-0.1-1.2-0.2-0.4-0.6-0.7-1-0.8z"/>
			<path id="Layer" class="s1" d="m42.2 163.7c1.5 1.8 3.2 3.2 5.2 4.3 2.1 1.1 4.4 1.8 6.7 1.9 0.5 0 0.9-0.2 1.2-0.5 0.3-0.3 0.4-0.7 0.4-1.1 0-0.4-0.1-0.8-0.4-1.1-0.3-0.3-0.7-0.5-1.2-0.5-1.8-0.1-3.6-0.6-5.2-1.5q-0.6-0.3-1.2-0.7-0.1-0.1-0.3-0.2c0 0-0.3-0.3-0.2-0.2 0.2 0.1-0.2-0.1-0.2-0.1q-0.1-0.2-0.3-0.3-1.2-1-2.2-2.2c-0.3-0.3-0.7-0.5-1.1-0.5-0.5 0-0.9 0.2-1.2 0.5-0.3 0.3-0.4 0.7-0.4 1.1 0 0.4 0.1 0.8 0.4 1.1z"/>
			<path id="Layer" class="s1" d="m59.4 169.8q1.3 0 2.5-0.3 1.1-0.3 2.1-0.7c0.4-0.1 0.8-0.4 1-0.7 0.2-0.4 0.3-0.8 0.2-1.2-0.1-0.5-0.4-0.8-0.8-1q-0.2-0.2-0.6-0.2-0.3-0.1-0.6 0-1.5 0.6-3.2 0.9l0.5-0.1q-0.6 0.1-1.1 0.1-0.5 0-0.9 0.2-0.4 0.3-0.6 0.8-0.2 0.4-0.1 0.9 0.1 0.5 0.4 0.8c0.3 0.3 0.7 0.5 1.2 0.5z"/>
			<path id="Layer" class="s1" d="m147.4 173.2q3.7 0.7 7.5 0.7c2.2 0 4.4-0.2 6.3-1.4 1.7-1 0.1-3.8-1.6-2.7q-0.3 0.1-0.5 0.3-0.3 0.1-0.1 0-0.1 0-0.3 0.1-0.6 0.2-1.3 0.3-1.3 0.3-2.7 0.2-3.2 0-6.4-0.6c-0.4-0.1-0.9 0-1.2 0.2-0.4 0.2-0.7 0.5-0.8 0.9-0.1 0.5-0.1 0.9 0.2 1.3 0.2 0.3 0.5 0.6 0.9 0.7z"/>
			<path id="Layer" class="s0" d="m59.1 139.4c-13.6-19.3-18.4-44-18.9-67.3-0.1-2.7-0.1-5.4 0.7-7.9 1.5-4.5 7-8.7 11-11 10.2-5.8 28.5-11.4 44.6-12.9 6.3-0.6 12.2-0.9 18.1-1 5.8 0.1 11.8 0.4 18 1 11.6 1 22.9 3.6 33.7 7.9 7.4 2.9 17 7 20.8 14.4 2.2 4.2 2.3 9.1 1.8 13.8-2.8 26.9-7.7 55.9-29.3 74.6z"/>
			<path id="Layer" class="s3" d="m64.2 73.9q-1.9-0.8-3.8-1.8c6.8-9.7 32.4-11.4 42.8-11.9 11.7-0.6 25.4-0.5 39 1.5 5.4 0.8 25.5 5.8 26.8 12.8-10.8 4.2-22.2 6.8-33.7 7.9q-9.1 0.8-18.1 0.8-9 0-18-0.8c-11.6-1.1-22.9-3.7-33.7-7.9q-0.6-0.3-1.3-0.6z"/>
			<path id="Layer" class="s0" d="m217.4 100.7c-1.8 11.6-11.7 21.2-21.1 26.8-6 3.6-26.2 14.2-27.9 14.9 0 0-0.3 0.1-0.9 0.3 5.5-6.9 9.7-14.9 12.9-23.5l0.6-0.3c6.7-2.8 15-7.6 17.9-14.9 2.8-6.7-4.8-14.8-12.1-9.1 0.8-5.1 1.4-10.1 1.8-15l0.5-0.1c6.4-1.7 13.8-1.7 19.5 1.1 4.9 2.4 8.5 6.9 9 14.2q0.2 2.8-0.2 5.6z"/>
			<path id="Layer" class="s1" d="m56.2 63c-0.6 0.5-1.1 1.1-1.5 1.9-0.3 0.7-0.5 1.5-0.5 2.3 0.3 1.5 1 2.9 2.2 3.9 2.4 2.2 5.4 3.6 8.4 4.8 9.5 3.8 19.5 6.3 29.7 7.5 10.7 1.4 21.5 1.7 32.2 1.2 10.5-0.6 21-1.9 31.1-4.7q4.2-1.2 8.3-2.7 3.2-1 6.2-2.5c1.6-0.8 3-2.2 3.7-3.9 0.8-2.1 0.1-4.4-1-6.2-1-1.8-3.8-0.2-2.7 1.6q0.7 1 0.9 2.3c0.1 0.5 0 1-0.3 1.5-0.7 1-1.6 1.7-2.7 2.2q-2.4 1.1-4.9 2-3.4 1.2-6.8 2.2c-9.3 2.6-18.9 4.2-28.5 4.8-19.6 1.3-39.8 0.1-58.5-6.2-3.9-1.3-7.3-2.5-10.7-4.6q-1-0.6-1.8-1.3-0.8-0.6-1.3-1.5-0.1-0.1-0.2-0.3c0.1 0.3-0.1-0.2-0.1-0.3-0.1-0.4 0 0.3 0-0.1q0-0.1 0-0.3 0 0.3 0 0.1 0.1-0.2 0.1-0.3c-0.1 0.3 0.2-0.3 0.2-0.3q0.4-0.5 0.8-0.8c0.3-0.3 0.4-0.7 0.4-1.1 0-0.5-0.1-0.9-0.4-1.2-0.3-0.3-0.7-0.4-1.1-0.4-0.5 0-0.9 0.1-1.2 0.4z"/>
			<path id="Layer" class="s1" d="m60.5 138.6c-6.2-9-10.8-19-13.7-29.6-2.8-10.6-4.5-21.5-4.9-32.5q-0.3-4.3-0.1-8.6c0.2-2.4 1.1-4.8 2.6-6.7 3.1-3.6 7.1-6.1 11.3-8.2 9.5-4.7 20-7.6 30.3-9.6q8.8-1.6 17.6-2.1 9.2-0.6 18.4-0.2c12.3 0.6 24.6 2.2 36.4 5.9q7.4 2.4 14.4 5.7c4.2 2 8.4 4.5 11.3 8.2 3.4 4.2 3.7 9.7 3.3 14.9q-0.7 7.4-1.8 14.7c-1.5 9.8-3.5 19.7-7 29-3.3 9.2-8.2 17.9-14.8 25.1q-2.5 2.8-5.4 5.3c-1.5 1.3 0.8 3.6 2.3 2.2 7.7-6.8 13.9-15.3 18.1-24.7 4.3-9.4 7-19.3 8.8-29.4 0.9-5.2 1.6-10.3 2.2-15.5 0.7-5.5 1.6-11.1 0.3-16.6-2.6-10.3-13.2-15.1-22.1-18.8-11.7-4.6-23.9-7.5-36.4-8.5q-9.5-1-19-0.9c-6.4 0.2-12.7 0.6-19 1.3-11.4 1.4-22.6 4.2-33.2 8.5-4.4 1.8-8.9 3.7-12.7 6.5-2.2 1.6-4.2 3.4-5.9 5.5-1.7 2.2-2.8 4.8-3.1 7.6q-0.3 4.4 0 8.8 0.2 4.3 0.6 8.6 0.7 8.5 2.4 16.9c2.3 11.1 6 21.9 11.6 31.8q2 3.6 4.4 7.1c0.3 0.3 0.6 0.6 1 0.7 0.4 0.1 0.9 0 1.2-0.2 0.4-0.2 0.6-0.5 0.8-0.9 0.1-0.5 0-0.9-0.2-1.3z"/>
			<path id="Layer" class="s1" d="m61.9 72.7q0.1 0 0.1-0.1c0.2-0.2-0.1 0.1 0-0.1q0.2-0.1 0.3-0.3 0.4-0.4 0.7-0.7 0.7-0.7 1.5-1.3 1.9-1.3 4-2.3 4.9-2.1 10-3.2c6.9-1.5 13.9-2.4 21-2.7q14.4-1 28.9-0.1 7.3 0.3 14.6 1.5 4.2 0.8 8.3 2.1 4.9 1.4 9.5 3.6 2.1 1 4 2.3 0.1 0.1 0.2 0.2 0.2 0.2 0.4 0.3 0.3 0.3 0.7 0.7 0.3 0.3 0.6 0.6c0.1 0.2-0.1 0-0.1 0q0.1 0.1 0.2 0.2 0.1 0.1 0.2 0.3 0.1 0.2 0.2 0.4c0.1 0.3-0.1-0.2 0 0q0.1 0.4 0.2 0.8c0.1 0.4 0.4 0.7 0.8 1 0.3 0.2 0.8 0.2 1.2 0.1 0.4-0.1 0.7-0.4 0.9-0.7 0.2-0.4 0.3-0.8 0.2-1.3-0.5-2.7-3.1-4.8-5.4-6.2-3-1.8-6.3-3.3-9.6-4.4q-4.7-1.6-9.6-2.6-6.1-1.3-12.2-1.7c-10.7-0.9-21.5-1.1-32.2-0.4q-10.8 0.4-21.4 2.4-5.7 1.1-11 3.1c-3.1 1.3-6.1 2.8-8.5 5.2q-0.8 0.8-1.5 1.7c-0.2 0.4-0.2 0.8-0.1 1.2 0.1 0.4 0.3 0.8 0.7 1 0.4 0.2 0.8 0.3 1.2 0.2 0.4-0.1 0.8-0.4 1-0.8z"/>
			<path id="Layer" class="s1" d="m189.6 81.3c6.1-1.6 13.3-1.8 18.9 1.3 2.8 1.5 5 4 6.2 6.9 1.5 3.7 1.8 7.9 1 11.8-1.8 8.8-8.1 16.1-15 21.3-5.3 4.1-11.4 7.1-17.2 10.2-5 2.7-10.1 5.5-15.2 7.9q-0.2 0.1-0.4 0.2c-0.3 0.1 0.4-0.2 0.1-0.1-0.4 0.1-0.7 0.4-0.9 0.8-0.2 0.4-0.3 0.8-0.2 1.2 0.1 0.4 0.4 0.7 0.8 1 0.3 0.2 0.8 0.2 1.2 0.1q2.6-1.1 5.2-2.5 4.6-2.4 9.1-4.9 4.8-2.5 9.5-5.1 4.3-2.3 8.4-5.1c7.7-5.5 14.7-13.1 17.2-22.3 2.3-8.1 0.8-17.6-6.2-22.9-5.9-4.3-13.9-4.7-20.8-3.5q-1.3 0.3-2.6 0.6c-2 0.5-1.1 3.6 0.9 3.1z"/>
			<path id="Layer" class="s1" d="m187.6 96.3c2-1.5 4.4-2.3 6.7-1.2 0.9 0.5 1.7 1.2 2.4 2.1 0.6 0.9 1 1.9 1.2 2.9 0.3 2.6-1.1 5.1-2.6 7.1-1.8 2.2-3.9 4.2-6.3 5.7q-4 2.7-8.5 4.5c-0.4 0.1-0.7 0.4-0.9 0.8-0.2 0.3-0.3 0.8-0.2 1.2 0.1 0.4 0.4 0.7 0.8 0.9 0.4 0.2 0.8 0.3 1.2 0.2 6.2-2.6 12.4-6.1 16.6-11.6 1.9-2.6 3.4-5.7 3-9-0.2-1.5-0.7-2.9-1.5-4.2-0.8-1.2-1.9-2.3-3.2-3.1-3.3-2-7.3-1.4-10.3 0.9-0.4 0.2-0.7 0.6-0.8 1-0.1 0.4 0 0.8 0.2 1.2 0.2 0.4 0.5 0.6 1 0.7 0.4 0.1 0.8 0.1 1.2-0.1z"/>
		</g>
	</g>
</svg>