<svg version="1.2" xmlns="http://www.w3.org/2000/svg" viewBox="0 0 296 205" width="296" height="205">
	<title>image</title>
	<style>
		.s0 { fill: #ffffff } 
		.s1 { fill: #023662 } 
	</style>
	<g id="Layer">
		<path id="Layer" class="s0" d="m23.5 40.6c-0.4 33.5-0.9 76.9-1.3 110.7 0 1.5 0.3 2.9 0.8 4.3 0.5 1.4 1.4 2.6 2.4 3.6 1 1.1 2.2 1.9 3.6 2.5 1.3 0.6 2.8 0.9 4.2 0.9 38.9 0.5 121.5 1.5 162.1 2 1.5 0 3-0.3 4.3-0.8 1.4-0.6 2.6-1.4 3.7-2.4 1-1 1.9-2.3 2.4-3.6 0.6-1.4 0.9-2.8 0.9-4.3 0.4-33.7 1-77.2 1.4-110.7 0-1.5-0.3-2.9-0.8-4.3-0.6-1.3-1.4-2.6-2.4-3.6-1-1.1-2.2-1.9-3.6-2.5-1.3-0.6-2.8-0.9-4.3-0.9-34-0.4-124.1-1.5-162.1-1.9-1.4-0.1-2.9 0.2-4.3 0.8-1.3 0.5-2.6 1.3-3.6 2.3-1.1 1.1-1.9 2.3-2.5 3.6-0.6 1.4-0.9 2.8-0.9 4.3z"/>
	</g>
	<path id="Layer" class="s1" d="m19.2 41.4q-0.5 38-0.9 76-0.2 9.3-0.3 18.6l-0.1 9.2q-0.3 4.2 0.1 8.5c0.5 2.8 1.7 5.4 3.5 7.6 1.8 2.2 4.1 3.9 6.8 4.8 4.2 1.6 9.1 1.1 13.5 1.1q60.5 0.7 121 1.5l26.4 0.3c4.9 0 9.5 0.4 13.8-2.1 2.5-1.4 4.6-3.5 6-6 1.4-2.5 2.1-5.3 2-8.2 0.5-25.2 0.6-50.5 0.9-75.7q0.1-9.5 0.3-19 0-4.2 0.1-8.3 0.3-4.6-0.1-9.2c-0.5-2.8-1.6-5.4-3.4-7.5-1.7-2.2-4-3.9-6.6-4.9-3.8-1.5-8-1.1-12-1.2l-51-0.6-60.9-0.7-26.8-0.3-11.4-0.2c-4.5 0-8.8-0.3-12.9 2.1-2.3 1.3-4.3 3.2-5.7 5.4-1.3 2.3-2.1 4.9-2.3 7.5-0.2 1.3 0.2 2.6 0.9 3.6 0.8 1 1.9 1.7 3.2 2 1.2 0.2 2.5-0.2 3.6-0.9 1-0.8 1.7-1.9 1.9-3.2q0-1.4 0.5-2.7 0.5-1.3 1.5-2.3 1-1 2.3-1.5 1.3-0.4 2.7-0.4c3.3 0 6.6 0.1 9.9 0.1l23.6 0.3 57.1 0.7 52.5 0.6 10.6 0.2h4.4q2-0.1 4 0.2c4.5 1.2 4.8 5.3 4.8 9.2q-0.2 8.6-0.3 17.3-0.4 36.4-0.8 72.8c-0.1 5.6 0.1 11.3-0.2 16.9q-0.1 1.3-0.6 2.5-0.6 1.2-1.5 2.1-1 1-2.3 1.4-1.2 0.4-2.6 0.4c-7.8 0.1-15.7-0.2-23.5-0.3q-58.4-0.7-116.9-1.4l-12.2-0.2c-3.3 0-7.3 0.5-10.1-0.5-4.4-1.5-4.2-5.9-4.1-9.7l0.2-17.5q0.4-36.6 0.9-73.2l0.2-16.3c-0.2-1.3-0.8-2.4-1.8-3.2-1.1-0.8-2.3-1.2-3.6-1.1-1.3 0.2-2.5 0.9-3.3 1.9-0.8 1-1.1 2.2-1 3.5z"/>
	<path id="Layer" class="s1" d="m38.3 55.8q28 25.4 57 49.7 3.3 2.7 6.5 5.4 3.6 3.4 7.8 6.1c1.3 0.7 2.8 1.1 4.2 1.3 1.5 0.1 3-0.1 4.5-0.6 2.9-1.3 5.6-3.1 7.9-5.3q15.9-12.3 31.4-25.1 17.7-14.7 35.1-29.9c1-0.8 1.7-1.9 1.8-3.2 0.2-1.2 0-2.5-0.8-3.6-0.7-1-1.9-1.7-3.2-1.9-1.2-0.2-2.5 0.1-3.6 0.8-19.5 17-39.2 33.7-59.5 49.7q-3.6 2.8-7.3 5.6-1.7 1.3-3.4 2.6c-0.7 0.6-1.4 1.4-2.3 1.1-0.8-0.2-1.8-1.3-2.3-1.8l-3.1-2.5q-3.4-2.8-6.9-5.7-14-11.7-27.8-23.7-15-13.1-29.8-26.5c-4.7-4.2-10.8 3.3-6.2 7.5z"/>
	<path id="Layer" class="s1" d="m284.7 71.9l-45.1-0.5-6.6-0.1c-1.2 0.2-2.4 0.8-3.2 1.8-0.8 1-1.2 2.3-1 3.6 0.1 1.3 0.8 2.4 1.8 3.2 1 0.8 2.3 1.2 3.6 1.1l45.1 0.5 6.5 0.1c1.3-0.2 2.5-0.8 3.3-1.8 0.8-1 1.1-2.3 1-3.6-0.2-1.3-0.8-2.4-1.8-3.2-1-0.8-2.3-1.2-3.6-1.1z"/>
	<path id="Layer" class="s1" d="m266.8 98.8l-29.8-0.3-4.3-0.1c-1.2 0.2-2.4 0.8-3.2 1.8-0.8 1-1.2 2.3-1.1 3.6 0.2 1.3 0.9 2.4 1.9 3.2 1 0.8 2.3 1.2 3.5 1.1l29.9 0.3 4.2 0.1c1.3-0.2 2.4-0.8 3.2-1.8 0.8-1 1.2-2.3 1.1-3.6-0.2-1.3-0.9-2.4-1.9-3.2-1-0.8-2.2-1.2-3.5-1.1z"/>
	<path id="Layer" class="s1" d="m249.6 125.7l-15-0.2h-2.2c-1.2 0.1-2.4 0.8-3.2 1.7q-0.6 0.8-0.9 1.7-0.3 0.9-0.2 1.9 0.1 1 0.6 1.8 0.4 0.9 1.2 1.5c1 0.7 2.3 1.1 3.6 1.1l15.1 0.1 2.1 0.1c1.3-0.2 2.4-0.8 3.2-1.8 0.9-1 1.2-2.3 1.1-3.6-0.1-1.3-0.8-2.4-1.7-3.2-1.1-0.8-2.4-1.2-3.7-1.1z"/>
</svg>