<svg version="1.2" xmlns="http://www.w3.org/2000/svg" viewBox="0 0 161 160" width="161" height="160">
	<title>image</title>
	<style>
		.s0 { fill: #b7b7b7 } 
	</style>
	<path id="Layer" fill-rule="evenodd" class="s0" d="m80.3 159.5c-44 0-79.8-35.8-79.8-79.8 0-43.9 35.8-79.7 79.8-79.7 44 0 79.8 35.8 79.8 79.7 0 44-35.8 79.8-79.8 79.8zm0-154.2c-41.1 0-74.5 33.4-74.5 74.4 0 41.1 33.4 74.5 74.5 74.5 41.1 0 74.5-33.4 74.5-74.5 0-41-33.4-74.4-74.5-74.4z"/>
	<path id="Layer" class="s0" d="m120.9 104.8l-25.3-8.8-1.7-13.7c-1.2 1.6-2.8 2.9-4.9 3.5l1.5 12.5c0.2 1 0.8 1.9 1.8 2.2l26.9 9.3c4.8 1.7 9 7.6 9 12.7v-0.1c0 1.5 1.2 2.7 2.6 2.7 1.5 0 2.7-1.2 2.7-2.7 0-7.3-5.7-15.2-12.6-17.6z"/>
	<path id="Layer" class="s0" d="m29.8 125.1c-1.5 0-2.7-1.2-2.7-2.7v0.1c0-7.4 5.6-15.3 12.6-17.7l25.3-8.7 0.1-1.5c0.1-1.5 1.5-2.5 2.9-2.3 1.5 0.2 2.5 1.5 2.3 2.9l-0.2 3.2c-0.2 1-0.9 1.8-1.8 2.2l-26.9 9.2c-4.8 1.7-9 7.6-9 12.7v-0.1c0 1.5-1.2 2.7-2.6 2.7z"/>
	<path id="Layer" fill-rule="evenodd" class="s0" d="m80.3 90.6c-14.8 0-22.3-9.8-22.3-34.4-0.1-6.2 0.6-12.6 6.5-18.4 3.7-3.8 9-5.7 15.8-5.7 6.8 0 12.1 1.9 15.8 5.7 5.9 5.8 6.6 12.2 6.5 18.4 0 24.6-7.5 34.4-22.3 34.4zm0-53.2c-5.4 0-9.3 1.4-12.1 4.1-3.3 3.4-4.9 6.4-4.9 14.7 0 21.3 5.6 29.1 17 29.1 11.4 0 17-7.8 17-29.1 0-8.3-1.6-11.3-5-14.7-2.7-2.7-6.6-4.1-12-4.1z"/>
</svg>