<!DOCTYPE svg PUBLIC "-//W3C//DTD SVG 1.1//EN" "http://www.w3.org/Graphics/SVG/1.1/DTD/svg11.dtd">
<!-- Uploaded to: SVG Repo, www.svgrepo.com, Transformed by: SVG Repo Mixer Tools -->
<svg fill="#000000" width="800px" height="800px" viewBox="-12.8 -12.8 153.60 153.60" data-name="Layer 1" id="Layer_1" xmlns="http://www.w3.org/2000/svg" transform="matrix(1, 0, 0, 1, 0, 0)rotate(0)">
<g id="SVGRepo_bgCarrier" stroke-width="0" transform="translate(24.32,24.32), scale(0.62)">
<path transform="translate(-12.8, -12.8), scale(4.8)" d="M16,28.479234357747963C18.027607885782814,28.829196252142346,20.125302566476716,29.253855533937074,22.092929331475236,28.65209812461151C24.14517124095646,28.024462946676884,25.998247521222538,26.717951536249174,27.310801104033224,25.02006288740821C28.61736575307086,23.32992138337344,29.729889235300348,21.20276035286176,29.492901696412115,19.07966676279385C29.253888938951718,16.938429904142197,27.23797990482475,15.502687724466732,26.047952907676148,13.706620317843388C25.212342617314828,12.445462032566587,23.99521522702625,11.451546916467397,23.493135852714442,10.024423558179574C22.691655281320738,7.74627451806489,24.051680123716352,4.608100842774798,22.272468266922136,2.9750854344151847C20.711962153691893,1.5428048895137252,18.11422936722158,3.275993102361103,16,3.146992825190811C13.735360365129704,3.0088152248233477,11.056798545093583,0.6942100195772309,9.347759779648232,2.186480847300473C7.377522331203091,3.9068209164951018,9.055195690200879,7.358486031609916,8.306524086713765,9.864657691146476C7.869768660724327,11.326692668385178,6.310227854932826,12.224602621478596,5.909252843720772,13.696852809858303C5.502674358327045,15.189677137994527,6.302108263456725,16.758757514731588,6.014819891813817,18.279052200303827C5.514830658782152,20.924933652011866,2.2683757734872847,23.546837930234677,3.6063333146860046,25.883619372216298C4.8279016793155565,28.01712375982243,8.435954128477071,26.20629756739972,10.842218635322268,26.710243362595367C12.643777448448207,27.087545187099604,14.186174716745038,28.166171000340835,16,28.479234357747963" fill="#7ed0ec" strokewidth="0"/>
</g>
<g id="SVGRepo_tracerCarrier" stroke-linecap="round" stroke-linejoin="round" stroke="#CCCCCC" stroke-width="0.256"/>
<g id="SVGRepo_iconCarrier">
<title/>
<path d="M62.64,103.35a1,1,0,0,0-1.41,0L43.86,120.71a1,1,0,0,0,0,1.41,1,1,0,0,0,.71.3,1,1,0,0,0,.71-.3l17.36-17.36A1,1,0,0,0,62.64,103.35Z"/>
<path d="M58.66,116.33a1,1,0,0,0,.7-.29l7.28-7.28a1,1,0,0,0-1.41-1.41L58,114.62a1,1,0,0,0,.71,1.71Z"/>
<path d="M55.18,117.39l-2.81,2.81a1,1,0,0,0,.71,1.71,1,1,0,0,0,.7-.3l2.82-2.81a1,1,0,0,0,0-1.41A1,1,0,0,0,55.18,117.39Z"/>
<path d="M5.88,84.14a1,1,0,0,0,.7.29,1,1,0,0,0,.71-.29L24.65,66.77a1,1,0,1,0-1.41-1.41L5.88,82.72A1,1,0,0,0,5.88,84.14Z"/>
<path d="M13.38,70.05l7.27-7.28a1,1,0,1,0-1.41-1.41L12,68.64a1,1,0,0,0,.71,1.7A1,1,0,0,0,13.38,70.05Z"/>
<path d="M7.8,75.63l2.81-2.81a1,1,0,0,0,0-1.42,1,1,0,0,0-1.41,0L6.38,74.22a1,1,0,0,0,0,1.41,1,1,0,0,0,.71.29A1,1,0,0,0,7.8,75.63Z"/>
<path d="M68,33.59,27.12,40.05a1,1,0,0,0-.55.28l-6.51,6.51a1,1,0,0,0,0,1.42L36.71,64.91,32,69.63a1,1,0,0,0,0,1.42L43.46,82.51l-4.54,4.55a1,1,0,0,0,.7,1.7,1,1,0,0,0,.71-.29l4.54-4.54L57,96a1,1,0,0,0,1.42,0l4.72-4.72,16.65,16.65a1,1,0,0,0,1.42,0l6-6h0l.54-.54a1,1,0,0,0,.28-.55L94.41,60l20.29-20.3a22.75,22.75,0,0,0,5.92-10.34.61.61,0,0,0,0-.13,22,22,0,0,0,.62-3.43l1.11-11.27a8.12,8.12,0,0,0-8.88-8.88L102.23,6.73a22.74,22.74,0,0,0-3.41.61l-.15,0A22.75,22.75,0,0,0,88.33,13.3ZM44.1,57.53,28.43,41.87,65.63,36Zm-21.92-10L26.73,43l16,15.94L38.13,63.5Zm58.27,58.27-16-15.95,4.55-4.55,16,16Zm5.68-6.26L70.47,83.9,92,62.37Zm16.3-90.84,11.26-1.11a6.14,6.14,0,0,1,6.7,6.7l-1.11,11.26c0,.45-.12.9-.19,1.35l-18-18C101.53,8.84,102,8.76,102.43,8.72Zm-3.66.7,19.81,19.81a20.92,20.92,0,0,1-5.29,9L57.66,93.88,46.29,82.51,75.06,53.74a1,1,0,0,0,0-1.41,1,1,0,0,0-1.42,0L44.87,81.1,34.12,70.34,44.8,59.65h0L89.74,14.71A21,21,0,0,1,98.77,9.42Z"/>
<path d="M10.9,120.42a3.27,3.27,0,0,0,1.42-.32L31.84,111A11.19,11.19,0,1,0,17,96.16L7.9,115.68a3.33,3.33,0,0,0,3,4.74Zm-1.19-3.89h0L18.78,97a9.12,9.12,0,0,1,6.74-5.18,10.21,10.21,0,0,1,1.65-.14,9.21,9.21,0,0,1,9,10.8A9.12,9.12,0,0,1,31,109.22l-19.53,9.07a1.32,1.32,0,0,1-1.76-1.76Z"/>
<path d="M96.18,42.27a10.46,10.46,0,1,0-7.39-3.06A10.42,10.42,0,0,0,96.18,42.27Zm-6-16.43a8.46,8.46,0,1,1,0,12A8.4,8.4,0,0,1,90.21,25.84Z"/>
</g>
</svg>