<?xml version="1.0" ?><!-- Uploaded to: SVG Repo, www.svgrepo.com, Generator: SVG Repo Mixer Tools -->
<svg fill="#000000" width="800px" height="800px" viewBox="0 0 128 128" data-name="Layer 1" id="Layer_1" xmlns="http://www.w3.org/2000/svg"><title/><path d="M8.09,34.53a1,1,0,0,0,.46,1L24.82,45.65a1,1,0,0,0,.53.15.94.94,0,0,0,.58-.19,1,1,0,0,0,.4-1l-.44-1.85,12.94-3,.3,1.29a1,1,0,0,0,1,.77l.23,0,2.31-.54a5.05,5.05,0,0,0,9.7-2.27l3.41-.8,1,4.11L57.13,44l-2,1a1,1,0,0,0-.46,1.33l1.61,3.35L35.53,60.5A1,1,0,0,0,36,62.39a1.07,1.07,0,0,0,.46-.11L57.19,51.46l1.39,2.88a1,1,0,0,0,.9.57,1,1,0,0,0,.41-.09L66.2,52V58a1,1,0,0,0,1,1H68l-33,61.29a1,1,0,0,0,1.76,1l11-20.37,21.63-6,13.42,4.61,3.51,12.29a1,1,0,0,0,1,.72,1.24,1.24,0,0,0,.27,0,1,1,0,0,0,.69-1.24l-3.12-11,9.9,3.41,9.34,21a1,1,0,0,0,.92.6,1,1,0,0,0,.4-.09,1,1,0,0,0,.51-1.32L77.26,59h.39a1,1,0,0,0,1-1V44.29l7.95-1.86a1,1,0,0,0,.75-1.2l-1.14-4.87,3.9-.91.52,2.23a1,1,0,0,0,.44.62,1,1,0,0,0,.53.15l.23,0L119.15,32a1,1,0,0,0,.75-1.21L113.51,3.51a1,1,0,0,0-1.2-.74L85,9.16a1,1,0,0,0-.74,1.2l.43,1.85-28.2,6.6-.6-2.58L76.94,11.3a1,1,0,0,0,.75-1.2L76.14,3.51a1,1,0,0,0-1.2-.75L38.57,11.27a1,1,0,0,0-.74,1.2l1.54,6.59a1,1,0,0,0,1,.78.85.85,0,0,0,.23,0l13.35-3.12.6,2.57-2,.48a1,1,0,0,0-.75,1.2l.48,2L36.79,26.59a1,1,0,0,0-.74,1.2l.3,1.29-12.94,3-.17-.72a1,1,0,0,0-1.2-.74l-.53.12L18.38,17.41a1,1,0,0,0-.44-.62,1,1,0,0,0-.76-.12l-7,1.63a1,1,0,0,0-.75,1.2l3.13,13.35-3.74.87A1,1,0,0,0,8.09,34.53Zm67.42-25-20.1,4.7L54.32,9.64l20.1-4.7Zm-34.42,8L40,13l12.38-2.9,1.08,4.65ZM49.9,40.84a3.06,3.06,0,1,1-3.3-4.6,2.8,2.8,0,0,1,.7-.09,3.1,3.1,0,0,1,3,2.37A3.05,3.05,0,0,1,49.9,40.84ZM75.7,57H68.2V54.81h8.45V57Zm-5.48,2h1l7.37,25.86-9.7,8L49,98.44Zm1.12,34.43L79.16,87l2.9,10.16Zm22.48,7.73-9.46-3.25L73.27,59h1.8ZM76.65,52.81H68.2V51.07L70,50.28a1,1,0,0,0,.55-.65l1-3.67,5.16-1.2Zm8.53-12.1L70.46,44.15a1,1,0,0,0-.74.72l-1,3.78L60,52.6l-1.4-2.91s0,0,0-.06l0,0-1.57-3.26,1.79-.88a1,1,0,0,0,.53-1.12l-.37-1.58,25.37-5.93Zm32.54-10.39-4.08.95L107.7,5.9l4.09-1ZM85.13,14.16l.34,1.47a1,1,0,1,0,2-.45l-1-4.3,19.35-4.53,5.93,25.38L92.35,36.25,91.83,34h0L89,22a1,1,0,0,0-1.94.46L89.65,33.5,58.43,40.8,53.91,21.46ZM52.67,24.93,55.3,36.17,51.83,37A4.92,4.92,0,0,0,50,34.92a5.06,5.06,0,0,0-7,1.63,4.92,4.92,0,0,0-.75,2.68l-1.4.32L38.52,29.6h0l-.3-1.29ZM36.8,31l1.58,6.72-12.94,3-1.58-6.72ZM11.64,20l5-1.18,2.9,12.38-5,1.17Zm9.88,12.79,2.31,9.87L11.66,35.12Z"/></svg>